<?xml version="1.0" encoding="UTF-8" standalone="no"?>
<svg
   xmlns:dc="http://purl.org/dc/elements/1.1/"
   xmlns:cc="http://creativecommons.org/ns#"
   xmlns:rdf="http://www.w3.org/1999/02/22-rdf-syntax-ns#"
   xmlns:svg="http://www.w3.org/2000/svg"
   xmlns="http://www.w3.org/2000/svg"
   xmlns:sodipodi="http://sodipodi.sourceforge.net/DTD/sodipodi-0.dtd"
   xmlns:inkscape="http://www.inkscape.org/namespaces/inkscape"
   version="1.1"
   width="11.694548cm"
   height="8.7719727cm"
   viewBox="0 0 46041.527 34535.326"
   id="svg1435"
   sodipodi:docname="ledboard-brd.svg"
   inkscape:version="0.92.3 (2405546, 2018-03-11)">
  <metadata
     id="metadata1441">
    <rdf:RDF>
      <cc:Work
         rdf:about="">
        <dc:format>image/svg+xml</dc:format>
        <dc:type
           rdf:resource="http://purl.org/dc/dcmitype/StillImage" />
        <dc:title>SVG Picture created as ledboard-brd.svg date 2022/01/16 14:45:42 </dc:title>
      </cc:Work>
    </rdf:RDF>
  </metadata>
  <defs
     id="defs1439" />
  <sodipodi:namedview
     pagecolor="#ffffff"
     bordercolor="#666666"
     borderopacity="1"
     objecttolerance="10"
     gridtolerance="10"
     guidetolerance="10"
     inkscape:pageopacity="0"
     inkscape:pageshadow="2"
     inkscape:window-width="2560"
     inkscape:window-height="1361"
     id="namedview1437"
     showgrid="false"
     fit-margin-bottom="0"
     fit-margin-top="0"
     fit-margin-left="0"
     fit-margin-right="0"
     inkscape:zoom="3.4283585"
     inkscape:cx="162.16532"
     inkscape:cy="96.97596"
     inkscape:window-x="1491"
     inkscape:window-y="269"
     inkscape:window-maximized="1"
     inkscape:current-layer="svg1435" />
  <title
     id="title1129">SVG Picture created as ledboard-brd.svg date 2022/01/16 14:45:42 </title>
  <desc
     id="desc1131">Picture generated by PCBNEW </desc>
  <g
     style="fill:#000000;fill-opacity:1;stroke:#000000;stroke-linecap:round;stroke-linejoin:round;stroke-opacity:1"
     id="g1133"
     transform="translate(-7864.1565,-2112.8347)" />
  <g
     style="fill:#000000;fill-opacity:0;stroke:#000000;stroke-width:-0.0003937;stroke-linecap:round;stroke-linejoin:round;stroke-opacity:1"
     id="g1333"
     transform="translate(-7864.1565,-2112.8347)">
    <g
       id="g1135" />
    <g
       style="fill:#000000;fill-opacity:0;stroke:#000000;stroke-width:0;stroke-linecap:round;stroke-linejoin:round;stroke-opacity:1"
       id="g1137" />
    <g
       style="fill:#000000;fill-opacity:1;stroke:#000000;stroke-width:0;stroke-linecap:round;stroke-linejoin:round;stroke-opacity:1"
       id="g1145">
      <path
         style="fill:#000000;fill-opacity:1;fill-rule:evenodd;stroke:#000000;stroke-width:0;stroke-linecap:round;stroke-linejoin:round;stroke-opacity:1"
         d="m 41925.7,9765.06 25.8,3.83 25.2,6.33 24.6,8.79 23.6,11.15 22.3,13.41 21,15.53 19.3,17.52 17.5,19.32 15.6,20.95 13.4,22.36 11.1,23.58 8.8,24.56 6.3,25.29 3.9,25.82 1.3,26 v 531.5 l -1.3,26.1 -3.9,25.8 -6.3,25.3 -8.8,24.5 -11.1,23.6 -13.4,22.4 -15.6,20.9 -17.5,19.3 -19.3,17.5 -21,15.6 -22.3,13.4 -23.6,11.1 -24.6,8.8 -25.2,6.4 -25.8,3.8 -26.1,1.3 h -846.5 l -26,-1.3 -25.8,-3.8 -25.3,-6.4 -24.5,-8.8 -23.6,-11.1 -22.4,-13.4 -20.9,-15.6 -19.4,-17.5 -17.5,-19.3 -15.5,-20.9 -13.4,-22.4 -11.2,-23.6 -8.8,-24.5 -6.3,-25.3 -3.8,-25.8 -1.3,-26.1 v -531.5 l 1.3,-26 3.8,-25.82 6.3,-25.29 8.8,-24.56 11.2,-23.58 13.4,-22.36 15.5,-20.95 17.5,-19.32 19.4,-17.52 20.9,-15.53 22.4,-13.41 23.6,-11.15 24.5,-8.79 25.3,-6.33 25.8,-3.83 26,-1.28 h 846.5 z"
         id="path1139"
         inkscape:connector-curvature="0" />
      <path
         style="fill:#000000;fill-opacity:1;fill-rule:evenodd;stroke:#000000;stroke-width:0;stroke-linecap:round;stroke-linejoin:round;stroke-opacity:1"
         d="m 36925.7,10828.1 25.8,3.8 25.2,6.3 24.6,8.8 23.6,11.2 22.3,13.4 21,15.5 19.3,17.5 17.5,19.3 15.6,21 13.4,22.3 11.1,23.6 8.8,24.6 6.3,25.3 3.9,25.8 1.3,26 v 531.5 l -1.3,26.1 -3.9,25.8 -6.3,25.3 -8.8,24.5 -11.1,23.6 -13.4,22.4 -15.6,20.9 -17.5,19.3 -19.3,17.5 -21,15.6 -22.3,13.4 -23.6,11.1 -24.6,8.8 -25.2,6.4 -25.8,3.8 -26.1,1.3 h -846.5 l -26,-1.3 -25.8,-3.8 -25.3,-6.4 -24.5,-8.8 -23.6,-11.1 -22.4,-13.4 -20.9,-15.6 -19.4,-17.5 -17.5,-19.3 -15.5,-20.9 -13.4,-22.4 -11.2,-23.6 -8.8,-24.5 -6.3,-25.3 -3.8,-25.8 -1.3,-26.1 v -531.5 l 1.3,-26 3.8,-25.8 6.3,-25.3 8.8,-24.6 11.2,-23.6 13.4,-22.3 15.5,-21 17.5,-19.3 19.4,-17.5 20.9,-15.5 22.4,-13.4 23.6,-11.2 24.5,-8.8 25.3,-6.3 25.8,-3.8 26,-1.3 h 846.5 z"
         id="path1141"
         inkscape:connector-curvature="0" />
      <circle
         cx="38976.398"
         cy="10826.8"
         r="1122.05"
         id="circle1143" />
    </g>
    <g
       style="fill:#000000;fill-opacity:1;stroke:#000000;stroke-width:39.37009811;stroke-linecap:round;stroke-linejoin:round;stroke-opacity:1"
       id="g1147" />
    <g
       id="g1149" />
    <g
       id="g1151" />
    <g
       style="fill:#000000;fill-opacity:1;stroke:#000000;stroke-width:39.37009811;stroke-linecap:round;stroke-linejoin:round;stroke-opacity:1"
       id="g1153" />
    <g
       style="fill:#000000;fill-opacity:1;stroke:#000000;stroke-width:0;stroke-linecap:round;stroke-linejoin:round;stroke-opacity:1"
       id="g1159">
      <path
         style="fill:#000000;fill-opacity:1;fill-rule:evenodd;stroke:#000000;stroke-width:0;stroke-linecap:round;stroke-linejoin:round;stroke-opacity:1"
         d="m 43652.6,13181.5 8.4,1.3 8.2,2 8,2.9 7.6,3.6 7.2,4.3 6.8,5.1 6.3,5.6 5.7,6.3 5,6.8 4.3,7.2 3.7,7.7 2.8,7.9 2.1,8.2 1.2,8.4 0.4,8.4 v 172.3 l -0.4,8.4 -1.2,8.4 -2.1,8.2 -2.8,7.9 -3.7,7.7 -4.3,7.2 -5,6.8 -5.7,6.3 -6.3,5.6 -6.8,5.1 -7.2,4.3 -7.6,3.6 -8,2.9 -8.2,2 -8.4,1.3 -8.4,0.4 h -201.8 l -8.4,-0.4 -8.4,-1.3 -8.2,-2 -7.9,-2.9 -7.7,-3.6 -7.2,-4.3 -6.8,-5.1 -6.3,-5.6 -5.7,-6.3 -5,-6.8 -4.3,-7.2 -3.6,-7.7 -2.9,-7.9 -2,-8.2 -1.3,-8.4 -0.4,-8.4 v -172.3 l 0.4,-8.4 1.3,-8.4 2,-8.2 2.9,-7.9 3.6,-7.7 4.3,-7.2 5,-6.8 5.7,-6.3 6.3,-5.6 6.8,-5.1 7.2,-4.3 7.7,-3.6 7.9,-2.9 8.2,-2 8.4,-1.3 8.4,-0.4 h 201.8 z"
         id="path1155"
         inkscape:connector-curvature="0" />
      <path
         style="fill:#000000;fill-opacity:1;fill-rule:evenodd;stroke:#000000;stroke-width:0;stroke-linecap:round;stroke-linejoin:round;stroke-opacity:1"
         d="m 43652.6,12561.4 8.4,1.3 8.2,2 8,2.9 7.6,3.6 7.2,4.3 6.8,5.1 6.3,5.6 5.7,6.3 5,6.8 4.3,7.2 3.7,7.7 2.8,7.9 2.1,8.2 1.2,8.4 0.4,8.4 v 172.3 l -0.4,8.4 -1.2,8.4 -2.1,8.2 -2.8,7.9 -3.7,7.7 -4.3,7.2 -5,6.8 -5.7,6.3 -6.3,5.7 -6.8,5 -7.2,4.3 -7.6,3.7 -8,2.8 -8.2,2.1 -8.4,1.2 -8.4,0.4 h -201.8 l -8.4,-0.4 -8.4,-1.2 -8.2,-2.1 -7.9,-2.8 -7.7,-3.7 -7.2,-4.3 -6.8,-5 -6.3,-5.7 -5.7,-6.3 -5,-6.8 -4.3,-7.2 -3.6,-7.7 -2.9,-7.9 -2,-8.2 -1.3,-8.4 -0.4,-8.4 v -172.3 l 0.4,-8.4 1.3,-8.4 2,-8.2 2.9,-7.9 3.6,-7.7 4.3,-7.2 5,-6.8 5.7,-6.3 6.3,-5.6 6.8,-5.1 7.2,-4.3 7.7,-3.6 7.9,-2.9 8.2,-2 8.4,-1.3 8.4,-0.4 h 201.8 z"
         id="path1157"
         inkscape:connector-curvature="0" />
    </g>
    <g
       id="g1161" />
    <g
       style="fill:#000000;fill-opacity:1;stroke:#000000;stroke-width:0;stroke-linecap:round;stroke-linejoin:round;stroke-opacity:1"
       id="g1167">
      <path
         style="fill:#000000;fill-opacity:1;fill-rule:evenodd;stroke:#000000;stroke-width:0;stroke-linecap:round;stroke-linejoin:round;stroke-opacity:1"
         d="m 40503,31988.6 8.4,1.2 8.2,2.1 7.9,2.8 7.7,3.7 7.2,4.3 6.8,5 6.3,5.7 5.7,6.3 5,6.8 4.3,7.2 3.7,7.7 2.8,7.9 2.1,8.2 1.2,8.4 0.4,8.4 v 172.3 l -0.4,8.4 -1.2,8.4 -2.1,8.2 -2.8,7.9 -3.7,7.7 -4.3,7.2 -5,6.8 -5.7,6.3 -6.3,5.6 -6.8,5.1 -7.2,4.3 -7.7,3.6 -7.9,2.9 -8.2,2 -8.4,1.3 -8.4,0.4 h -201.8 l -8.4,-0.4 -8.4,-1.3 -8.2,-2 -7.9,-2.9 -7.7,-3.6 -7.2,-4.3 -6.8,-5.1 -6.3,-5.6 -5.7,-6.3 -5,-6.8 -4.3,-7.2 -3.7,-7.7 -2.8,-7.9 -2.1,-8.2 -1.2,-8.4 -0.4,-8.4 v -172.3 l 0.4,-8.4 1.2,-8.4 2.1,-8.2 2.8,-7.9 3.7,-7.7 4.3,-7.2 5,-6.8 5.7,-6.3 6.3,-5.7 6.8,-5 7.2,-4.3 7.7,-3.7 7.9,-2.8 8.2,-2.1 8.4,-1.2 8.4,-0.4 h 201.8 z"
         id="path1163"
         inkscape:connector-curvature="0" />
      <path
         style="fill:#000000;fill-opacity:1;fill-rule:evenodd;stroke:#000000;stroke-width:0;stroke-linecap:round;stroke-linejoin:round;stroke-opacity:1"
         d="m 40503,31368.5 8.4,1.3 8.2,2 7.9,2.9 7.7,3.6 7.2,4.3 6.8,5.1 6.3,5.6 5.7,6.3 5,6.8 4.3,7.2 3.7,7.7 2.8,7.9 2.1,8.2 1.2,8.4 0.4,8.4 v 172.3 l -0.4,8.4 -1.2,8.4 -2.1,8.2 -2.8,7.9 -3.7,7.7 -4.3,7.2 -5,6.8 -5.7,6.3 -6.3,5.6 -6.8,5.1 -7.2,4.3 -7.7,3.6 -7.9,2.9 -8.2,2 -8.4,1.3 -8.4,0.4 h -201.8 l -8.4,-0.4 -8.4,-1.3 -8.2,-2 -7.9,-2.9 -7.7,-3.6 -7.2,-4.3 -6.8,-5.1 -6.3,-5.6 -5.7,-6.3 -5,-6.8 -4.3,-7.2 -3.7,-7.7 -2.8,-7.9 -2.1,-8.2 -1.2,-8.4 -0.4,-8.4 v -172.3 l 0.4,-8.4 1.2,-8.4 2.1,-8.2 2.8,-7.9 3.7,-7.7 4.3,-7.2 5,-6.8 5.7,-6.3 6.3,-5.6 6.8,-5.1 7.2,-4.3 7.7,-3.6 7.9,-2.9 8.2,-2 8.4,-1.3 8.4,-0.4 h 201.8 z"
         id="path1165"
         inkscape:connector-curvature="0" />
    </g>
    <g
       id="g1169" />
    <g
       style="fill:#000000;fill-opacity:1;stroke:#000000;stroke-width:0;stroke-linecap:round;stroke-linejoin:round;stroke-opacity:1"
       id="g1177">
      <path
         style="fill:#000000;fill-opacity:1;fill-rule:evenodd;stroke:#000000;stroke-width:0;stroke-linecap:round;stroke-linejoin:round;stroke-opacity:1"
         d="m 41925.7,28662.7 25.8,3.8 25.2,6.4 24.6,8.7 23.6,11.2 22.3,13.4 21,15.5 19.3,17.6 17.5,19.3 15.6,20.9 13.4,22.4 11.1,23.6 8.8,24.5 6.3,25.3 3.9,25.8 1.3,26.1 v 531.5 l -1.3,26 -3.9,25.8 -6.3,25.3 -8.8,24.6 -11.1,23.5 -13.4,22.4 -15.6,20.9 -17.5,19.4 -19.3,17.5 -21,15.5 -22.3,13.4 -23.6,11.2 -24.6,8.8 -25.2,6.3 -25.8,3.8 -26.1,1.3 h -846.5 l -26,-1.3 -25.8,-3.8 -25.3,-6.3 -24.5,-8.8 -23.6,-11.2 -22.4,-13.4 -20.9,-15.5 -19.4,-17.5 -17.5,-19.4 -15.5,-20.9 -13.4,-22.4 -11.2,-23.5 -8.8,-24.6 -6.3,-25.3 -3.8,-25.8 -1.3,-26 v -531.5 l 1.3,-26.1 3.8,-25.8 6.3,-25.3 8.8,-24.5 11.2,-23.6 13.4,-22.4 15.5,-20.9 17.5,-19.3 19.4,-17.6 20.9,-15.5 22.4,-13.4 23.6,-11.2 24.5,-8.7 25.3,-6.4 25.8,-3.8 26,-1.3 h 846.5 z"
         id="path1171"
         inkscape:connector-curvature="0" />
      <path
         style="fill:#000000;fill-opacity:1;fill-rule:evenodd;stroke:#000000;stroke-width:0;stroke-linecap:round;stroke-linejoin:round;stroke-opacity:1"
         d="m 36925.7,29725.7 25.8,3.8 25.2,6.4 24.6,8.7 23.6,11.2 22.3,13.4 21,15.5 19.3,17.5 17.5,19.4 15.6,20.9 13.4,22.4 11.1,23.6 8.8,24.5 6.3,25.3 3.9,25.8 1.3,26.1 v 531.5 l -1.3,26 -3.9,25.8 -6.3,25.3 -8.8,24.6 -11.1,23.5 -13.4,22.4 -15.6,20.9 -17.5,19.4 -19.3,17.5 -21,15.5 -22.3,13.4 -23.6,11.2 -24.6,8.8 -25.2,6.3 -25.8,3.8 -26.1,1.3 h -846.5 l -26,-1.3 -25.8,-3.8 -25.3,-6.3 -24.5,-8.8 -23.6,-11.2 -22.4,-13.4 -20.9,-15.5 -19.4,-17.5 -17.5,-19.4 -15.5,-20.9 -13.4,-22.4 -11.2,-23.5 -8.8,-24.6 -6.3,-25.3 -3.8,-25.8 -1.3,-26 v -531.5 l 1.3,-26.1 3.8,-25.8 6.3,-25.3 8.8,-24.5 11.2,-23.6 13.4,-22.4 15.5,-20.9 17.5,-19.4 19.4,-17.5 20.9,-15.5 22.4,-13.4 23.6,-11.2 24.5,-8.7 25.3,-6.4 25.8,-3.8 26,-1.3 h 846.5 z"
         id="path1173"
         inkscape:connector-curvature="0" />
      <circle
         cx="38976.398"
         cy="29724.4"
         r="1122.05"
         id="circle1175" />
    </g>
    <g
       style="fill:#000000;fill-opacity:1;stroke:#000000;stroke-width:39.37009811;stroke-linecap:round;stroke-linejoin:round;stroke-opacity:1"
       id="g1179" />
    <g
       id="g1181" />
    <g
       style="fill:#000000;fill-opacity:1;stroke:#000000;stroke-width:39.37009811;stroke-linecap:round;stroke-linejoin:round;stroke-opacity:1"
       id="g1183" />
    <g
       style="fill:#000000;fill-opacity:1;stroke:#000000;stroke-width:0;stroke-linecap:round;stroke-linejoin:round;stroke-opacity:1"
       id="g1195">
      <path
         style="fill:#000000;fill-opacity:1;fill-rule:evenodd;stroke:#000000;stroke-width:0;stroke-linecap:round;stroke-linejoin:round;stroke-opacity:1"
         d="m 41467.9,12681.4 6.2,0.9 6.1,1.6 5.9,2.1 5.7,2.7 5.4,3.2 5,3.7 4.7,4.2 4.2,4.7 3.7,5 3.2,5.4 2.7,5.7 2.1,5.9 1.6,6.1 0.9,6.2 0.3,6.3 v 352.3 l -0.3,6.3 -0.9,6.2 -1.6,6.1 -2.1,5.9 -2.7,5.7 -3.2,5.4 -3.7,5 -4.2,4.7 -4.7,4.2 -5,3.7 -5.4,3.3 -5.7,2.6 -5.9,2.2 -6.1,1.5 -6.2,0.9 -6.3,0.3 h -127.9 l -6.3,-0.3 -6.2,-0.9 -6.1,-1.5 -5.9,-2.2 -5.7,-2.6 -5.4,-3.3 -5,-3.7 -4.7,-4.2 -4.2,-4.7 -3.7,-5 -3.3,-5.4 -2.6,-5.7 -2.2,-5.9 -1.5,-6.1 -0.9,-6.2 -0.3,-6.3 v -352.3 l 0.3,-6.3 0.9,-6.2 1.5,-6.1 2.2,-5.9 2.6,-5.7 3.3,-5.4 3.7,-5 4.2,-4.7 4.7,-4.2 5,-3.7 5.4,-3.2 5.7,-2.7 5.9,-2.1 6.1,-1.6 6.2,-0.9 6.3,-0.3 h 127.9 z"
         id="path1185"
         inkscape:connector-curvature="0" />
      <path
         style="fill:#000000;fill-opacity:1;fill-rule:evenodd;stroke:#000000;stroke-width:0;stroke-linecap:round;stroke-linejoin:round;stroke-opacity:1"
         d="m 42215.9,12681.4 6.2,0.9 6.1,1.6 5.9,2.1 5.7,2.7 5.4,3.2 5,3.7 4.7,4.2 4.2,4.7 3.7,5 3.3,5.4 2.7,5.7 2.1,5.9 1.5,6.1 0.9,6.2 0.3,6.3 v 352.3 l -0.3,6.3 -0.9,6.2 -1.5,6.1 -2.1,5.9 -2.7,5.7 -3.3,5.4 -3.7,5 -4.2,4.7 -4.7,4.2 -5,3.7 -5.4,3.3 -5.7,2.6 -5.9,2.2 -6.1,1.5 -6.2,0.9 -6.3,0.3 h -127.9 l -6.3,-0.3 -6.2,-0.9 -6.1,-1.5 -5.9,-2.2 -5.7,-2.6 -5.4,-3.3 -5,-3.7 -4.6,-4.2 -4.3,-4.7 -3.7,-5 -3.2,-5.4 -2.7,-5.7 -2.1,-5.9 -1.6,-6.1 -0.9,-6.2 -0.3,-6.3 v -352.3 l 0.3,-6.3 0.9,-6.2 1.6,-6.1 2.1,-5.9 2.7,-5.7 3.2,-5.4 3.7,-5 4.3,-4.7 4.6,-4.2 5,-3.7 5.4,-3.2 5.7,-2.7 5.9,-2.1 6.1,-1.6 6.2,-0.9 6.3,-0.3 h 127.9 z"
         id="path1187"
         inkscape:connector-curvature="0" />
      <path
         style="fill:#000000;fill-opacity:1;fill-rule:evenodd;stroke:#000000;stroke-width:0;stroke-linecap:round;stroke-linejoin:round;stroke-opacity:1"
         d="m 42215.9,13712.9 6.2,0.9 6.1,1.6 5.9,2.1 5.7,2.7 5.4,3.2 5,3.7 4.7,4.2 4.2,4.7 3.7,5 3.3,5.4 2.7,5.7 2.1,5.9 1.5,6.1 0.9,6.2 0.3,6.3 v 352.3 l -0.3,6.3 -0.9,6.2 -1.5,6.1 -2.1,5.9 -2.7,5.7 -3.3,5.4 -3.7,5 -4.2,4.7 -4.7,4.2 -5,3.7 -5.4,3.3 -5.7,2.6 -5.9,2.2 -6.1,1.5 -6.2,0.9 -6.3,0.3 h -127.9 l -6.3,-0.3 -6.2,-0.9 -6.1,-1.5 -5.9,-2.2 -5.7,-2.6 -5.4,-3.3 -5,-3.7 -4.6,-4.2 -4.3,-4.7 -3.7,-5 -3.2,-5.4 -2.7,-5.7 -2.1,-5.9 -1.6,-6.1 -0.9,-6.2 -0.3,-6.3 v -352.3 l 0.3,-6.3 0.9,-6.2 1.6,-6.1 2.1,-5.9 2.7,-5.7 3.2,-5.4 3.7,-5 4.3,-4.7 4.6,-4.2 5,-3.7 5.4,-3.2 5.7,-2.7 5.9,-2.1 6.1,-1.6 6.2,-0.9 6.3,-0.3 h 127.9 z"
         id="path1189"
         inkscape:connector-curvature="0" />
      <path
         style="fill:#000000;fill-opacity:1;fill-rule:evenodd;stroke:#000000;stroke-width:0;stroke-linecap:round;stroke-linejoin:round;stroke-opacity:1"
         d="m 41841.9,13712.9 6.2,0.9 6.1,1.6 5.9,2.1 5.7,2.7 5.4,3.2 5,3.7 4.7,4.2 4.2,4.7 3.7,5 3.3,5.4 2.6,5.7 2.2,5.9 1.5,6.1 0.9,6.2 0.3,6.3 v 352.3 l -0.3,6.3 -0.9,6.2 -1.5,6.1 -2.2,5.9 -2.6,5.7 -3.3,5.4 -3.7,5 -4.2,4.7 -4.7,4.2 -5,3.7 -5.4,3.3 -5.7,2.6 -5.9,2.2 -6.1,1.5 -6.2,0.9 -6.3,0.3 h -127.9 l -6.3,-0.3 -6.2,-0.9 -6.1,-1.5 -5.9,-2.2 -5.7,-2.6 -5.4,-3.3 -5,-3.7 -4.7,-4.2 -4.2,-4.7 -3.7,-5 -3.2,-5.4 -2.7,-5.7 -2.1,-5.9 -1.6,-6.1 -0.9,-6.2 -0.3,-6.3 v -352.3 l 0.3,-6.3 0.9,-6.2 1.6,-6.1 2.1,-5.9 2.7,-5.7 3.2,-5.4 3.7,-5 4.2,-4.7 4.7,-4.2 5,-3.7 5.4,-3.2 5.7,-2.7 5.9,-2.1 6.1,-1.6 6.2,-0.9 6.3,-0.3 h 127.9 z"
         id="path1191"
         inkscape:connector-curvature="0" />
      <path
         style="fill:#000000;fill-opacity:1;fill-rule:evenodd;stroke:#000000;stroke-width:0;stroke-linecap:round;stroke-linejoin:round;stroke-opacity:1"
         d="m 41467.9,13712.9 6.2,0.9 6.1,1.6 5.9,2.1 5.7,2.7 5.4,3.2 5,3.7 4.7,4.2 4.2,4.7 3.7,5 3.2,5.4 2.7,5.7 2.1,5.9 1.6,6.1 0.9,6.2 0.3,6.3 v 352.3 l -0.3,6.3 -0.9,6.2 -1.6,6.1 -2.1,5.9 -2.7,5.7 -3.2,5.4 -3.7,5 -4.2,4.7 -4.7,4.2 -5,3.7 -5.4,3.3 -5.7,2.6 -5.9,2.2 -6.1,1.5 -6.2,0.9 -6.3,0.3 h -127.9 l -6.3,-0.3 -6.2,-0.9 -6.1,-1.5 -5.9,-2.2 -5.7,-2.6 -5.4,-3.3 -5,-3.7 -4.7,-4.2 -4.2,-4.7 -3.7,-5 -3.3,-5.4 -2.6,-5.7 -2.2,-5.9 -1.5,-6.1 -0.9,-6.2 -0.3,-6.3 v -352.3 l 0.3,-6.3 0.9,-6.2 1.5,-6.1 2.2,-5.9 2.6,-5.7 3.3,-5.4 3.7,-5 4.2,-4.7 4.7,-4.2 5,-3.7 5.4,-3.2 5.7,-2.7 5.9,-2.1 6.1,-1.6 6.2,-0.9 6.3,-0.3 h 127.9 z"
         id="path1193"
         inkscape:connector-curvature="0" />
    </g>
    <g
       id="g1197" />
    <g
       style="fill:#000000;fill-opacity:1;stroke:#000000;stroke-width:0;stroke-linecap:round;stroke-linejoin:round;stroke-opacity:1"
       id="g1209">
      <path
         style="fill:#000000;fill-opacity:1;fill-rule:evenodd;stroke:#000000;stroke-width:0;stroke-linecap:round;stroke-linejoin:round;stroke-opacity:1"
         d="m 41861.6,30071.2 6.2,0.9 6.1,1.5 5.9,2.1 5.7,2.7 5.4,3.2 5,3.8 4.7,4.2 4.2,4.7 3.7,5 3.2,5.4 2.7,5.7 2.1,5.9 1.6,6.1 0.9,6.2 0.3,6.2 v 352.4 l -0.3,6.3 -0.9,6.2 -1.6,6.1 -2.1,5.9 -2.7,5.7 -3.2,5.3 -3.7,5.1 -4.2,4.6 -4.7,4.3 -5,3.7 -5.4,3.2 -5.7,2.7 -5.9,2.1 -6.1,1.6 -6.2,0.9 -6.3,0.3 h -127.9 l -6.3,-0.3 -6.2,-0.9 -6.1,-1.6 -5.9,-2.1 -5.7,-2.7 -5.4,-3.2 -5,-3.7 -4.7,-4.3 -4.2,-4.6 -3.7,-5.1 -3.3,-5.3 -2.6,-5.7 -2.2,-5.9 -1.5,-6.1 -0.9,-6.2 -0.3,-6.3 v -352.4 l 0.3,-6.2 0.9,-6.2 1.5,-6.1 2.2,-5.9 2.6,-5.7 3.3,-5.4 3.7,-5 4.2,-4.7 4.7,-4.2 5,-3.8 5.4,-3.2 5.7,-2.7 5.9,-2.1 6.1,-1.5 6.2,-0.9 6.3,-0.3 h 127.9 z"
         id="path1199"
         inkscape:connector-curvature="0" />
      <path
         style="fill:#000000;fill-opacity:1;fill-rule:evenodd;stroke:#000000;stroke-width:0;stroke-linecap:round;stroke-linejoin:round;stroke-opacity:1"
         d="m 42609.6,30071.2 6.2,0.9 6.1,1.5 5.9,2.1 5.7,2.7 5.4,3.2 5,3.8 4.7,4.2 4.2,4.7 3.7,5 3.3,5.4 2.7,5.7 2.1,5.9 1.5,6.1 0.9,6.2 0.3,6.2 v 352.4 l -0.3,6.3 -0.9,6.2 -1.5,6.1 -2.1,5.9 -2.7,5.7 -3.3,5.3 -3.7,5.1 -4.2,4.6 -4.7,4.3 -5,3.7 -5.4,3.2 -5.7,2.7 -5.9,2.1 -6.1,1.6 -6.2,0.9 -6.3,0.3 h -127.9 l -6.3,-0.3 -6.2,-0.9 -6.1,-1.6 -5.9,-2.1 -5.7,-2.7 -5.3,-3.2 -5.1,-3.7 -4.6,-4.3 -4.3,-4.6 -3.7,-5.1 -3.2,-5.3 -2.7,-5.7 -2.1,-5.9 -1.6,-6.1 -0.9,-6.2 -0.3,-6.3 v -352.4 l 0.3,-6.2 0.9,-6.2 1.6,-6.1 2.1,-5.9 2.7,-5.7 3.2,-5.4 3.7,-5 4.3,-4.7 4.6,-4.2 5.1,-3.8 5.3,-3.2 5.7,-2.7 5.9,-2.1 6.1,-1.5 6.2,-0.9 6.3,-0.3 h 127.9 z"
         id="path1201"
         inkscape:connector-curvature="0" />
      <path
         style="fill:#000000;fill-opacity:1;fill-rule:evenodd;stroke:#000000;stroke-width:0;stroke-linecap:round;stroke-linejoin:round;stroke-opacity:1"
         d="m 42609.6,31102.7 6.2,0.9 6.1,1.5 5.9,2.1 5.7,2.7 5.4,3.2 5,3.8 4.7,4.2 4.2,4.7 3.7,5 3.3,5.4 2.7,5.7 2.1,5.9 1.5,6.1 0.9,6.2 0.3,6.2 v 352.4 l -0.3,6.3 -0.9,6.2 -1.5,6.1 -2.1,5.9 -2.7,5.7 -3.3,5.3 -3.7,5.1 -4.2,4.6 -4.7,4.3 -5,3.7 -5.4,3.2 -5.7,2.7 -5.9,2.1 -6.1,1.5 -6.2,1 -6.3,0.3 h -127.9 l -6.3,-0.3 -6.2,-1 -6.1,-1.5 -5.9,-2.1 -5.7,-2.7 -5.3,-3.2 -5.1,-3.7 -4.6,-4.3 -4.3,-4.6 -3.7,-5.1 -3.2,-5.3 -2.7,-5.7 -2.1,-5.9 -1.6,-6.1 -0.9,-6.2 -0.3,-6.3 v -352.4 l 0.3,-6.2 0.9,-6.2 1.6,-6.1 2.1,-5.9 2.7,-5.7 3.2,-5.4 3.7,-5 4.3,-4.7 4.6,-4.2 5.1,-3.8 5.3,-3.2 5.7,-2.7 5.9,-2.1 6.1,-1.5 6.2,-0.9 6.3,-0.3 h 127.9 z"
         id="path1203"
         inkscape:connector-curvature="0" />
      <path
         style="fill:#000000;fill-opacity:1;fill-rule:evenodd;stroke:#000000;stroke-width:0;stroke-linecap:round;stroke-linejoin:round;stroke-opacity:1"
         d="m 42235.6,31102.7 6.2,0.9 6.1,1.5 5.9,2.1 5.7,2.7 5.4,3.2 5,3.8 4.7,4.2 4.2,4.7 3.7,5 3.3,5.4 2.6,5.7 2.2,5.9 1.5,6.1 0.9,6.2 0.3,6.2 v 352.4 l -0.3,6.3 -0.9,6.2 -1.5,6.1 -2.2,5.9 -2.6,5.7 -3.3,5.3 -3.7,5.1 -4.2,4.6 -4.7,4.3 -5,3.7 -5.4,3.2 -5.7,2.7 -5.9,2.1 -6.1,1.5 -6.2,1 -6.3,0.3 h -127.9 l -6.3,-0.3 -6.2,-1 -6.1,-1.5 -5.9,-2.1 -5.7,-2.7 -5.4,-3.2 -5,-3.7 -4.7,-4.3 -4.2,-4.6 -3.7,-5.1 -3.2,-5.3 -2.7,-5.7 -2.1,-5.9 -1.6,-6.1 -0.9,-6.2 -0.3,-6.3 v -352.4 l 0.3,-6.2 0.9,-6.2 1.6,-6.1 2.1,-5.9 2.7,-5.7 3.2,-5.4 3.7,-5 4.2,-4.7 4.7,-4.2 5,-3.8 5.4,-3.2 5.7,-2.7 5.9,-2.1 6.1,-1.5 6.2,-0.9 6.3,-0.3 h 127.9 z"
         id="path1205"
         inkscape:connector-curvature="0" />
      <path
         style="fill:#000000;fill-opacity:1;fill-rule:evenodd;stroke:#000000;stroke-width:0;stroke-linecap:round;stroke-linejoin:round;stroke-opacity:1"
         d="m 41861.6,31102.7 6.2,0.9 6.1,1.5 5.9,2.1 5.7,2.7 5.4,3.2 5,3.8 4.7,4.2 4.2,4.7 3.7,5 3.2,5.4 2.7,5.7 2.1,5.9 1.6,6.1 0.9,6.2 0.3,6.2 v 352.4 l -0.3,6.3 -0.9,6.2 -1.6,6.1 -2.1,5.9 -2.7,5.7 -3.2,5.3 -3.7,5.1 -4.2,4.6 -4.7,4.3 -5,3.7 -5.4,3.2 -5.7,2.7 -5.9,2.1 -6.1,1.5 -6.2,1 -6.3,0.3 h -127.9 l -6.3,-0.3 -6.2,-1 -6.1,-1.5 -5.9,-2.1 -5.7,-2.7 -5.4,-3.2 -5,-3.7 -4.7,-4.3 -4.2,-4.6 -3.7,-5.1 -3.3,-5.3 -2.6,-5.7 -2.2,-5.9 -1.5,-6.1 -0.9,-6.2 -0.3,-6.3 v -352.4 l 0.3,-6.2 0.9,-6.2 1.5,-6.1 2.2,-5.9 2.6,-5.7 3.3,-5.4 3.7,-5 4.2,-4.7 4.7,-4.2 5,-3.8 5.4,-3.2 5.7,-2.7 5.9,-2.1 6.1,-1.5 6.2,-0.9 6.3,-0.3 h 127.9 z"
         id="path1207"
         inkscape:connector-curvature="0" />
    </g>
    <g
       id="g1211" />
    <g
       style="fill:#000000;fill-opacity:1;stroke:#000000;stroke-width:0;stroke-linecap:round;stroke-linejoin:round;stroke-opacity:1"
       id="g1217">
      <path
         style="fill:#000000;fill-opacity:1;fill-rule:evenodd;stroke:#000000;stroke-width:0;stroke-linecap:round;stroke-linejoin:round;stroke-opacity:1"
         d="m 27864.9,5634.14 5.7,0.83 5.5,1.39 5.4,1.92 5.1,2.44 4.9,2.92 4.6,3.4 4.2,3.83 3.8,4.22 3.4,4.58 3,4.88 2.4,5.16 1.9,5.36 1.4,5.53 0.8,5.64 0.3,5.69 v 135.83 l -0.3,5.69 -0.8,5.64 -1.4,5.52 -1.9,5.37 -2.4,5.15 -3,4.89 -3.4,4.58 -3.8,4.22 -4.2,3.83 -4.6,3.39 -4.9,2.93 -5.1,2.44 -5.4,1.92 -5.5,1.38 -5.7,0.84 -5.6,0.28 h -116.2 l -5.7,-0.28 -5.6,-0.84 -5.5,-1.38 -5.4,-1.92 -5.2,-2.44 -4.9,-2.93 -4.5,-3.39 -4.3,-3.83 -3.8,-4.22 -3.4,-4.58 -2.9,-4.89 -2.4,-5.15 -2,-5.37 -1.3,-5.52 -0.9,-5.64 -0.3,-5.69 v -135.83 l 0.3,-5.69 0.9,-5.64 1.3,-5.53 2,-5.36 2.4,-5.16 2.9,-4.88 3.4,-4.58 3.8,-4.22 4.3,-3.83 4.5,-3.4 4.9,-2.92 5.2,-2.44 5.4,-1.92 5.5,-1.39 5.6,-0.83 5.7,-0.28 h 116.2 z"
         id="path1213"
         inkscape:connector-curvature="0" />
      <path
         style="fill:#000000;fill-opacity:1;fill-rule:evenodd;stroke:#000000;stroke-width:0;stroke-linecap:round;stroke-linejoin:round;stroke-opacity:1"
         d="m 28246.8,5634.14 5.7,0.83 5.5,1.39 5.4,1.92 5.1,2.44 4.9,2.92 4.6,3.4 4.2,3.83 3.8,4.22 3.4,4.58 3,4.88 2.4,5.16 1.9,5.36 1.4,5.53 0.8,5.64 0.3,5.69 v 135.83 l -0.3,5.69 -0.8,5.64 -1.4,5.52 -1.9,5.37 -2.4,5.15 -3,4.89 -3.4,4.58 -3.8,4.22 -4.2,3.83 -4.6,3.39 -4.9,2.93 -5.1,2.44 -5.4,1.92 -5.5,1.38 -5.7,0.84 -5.7,0.28 H 28125 l -5.7,-0.28 -5.6,-0.84 -5.6,-1.38 -5.3,-1.92 -5.2,-2.44 -4.9,-2.93 -4.5,-3.39 -4.3,-3.83 -3.8,-4.22 -3.4,-4.58 -2.9,-4.89 -2.5,-5.15 -1.9,-5.37 -1.4,-5.52 -0.8,-5.64 -0.3,-5.69 v -135.83 l 0.3,-5.69 0.8,-5.64 1.4,-5.53 1.9,-5.36 2.5,-5.16 2.9,-4.88 3.4,-4.58 3.8,-4.22 4.3,-3.83 4.5,-3.4 4.9,-2.92 5.2,-2.44 5.3,-1.92 5.6,-1.39 5.6,-0.83 5.7,-0.28 h 116.1 z"
         id="path1215"
         inkscape:connector-curvature="0" />
    </g>
    <g
       id="g1219" />
    <g
       style="fill:#000000;fill-opacity:1;stroke:#000000;stroke-width:0;stroke-linecap:round;stroke-linejoin:round;stroke-opacity:1"
       id="g1225">
      <path
         style="fill:#000000;fill-opacity:1;fill-rule:evenodd;stroke:#000000;stroke-width:0;stroke-linecap:round;stroke-linejoin:round;stroke-opacity:1"
         d="m 41960.7,11843 9.3,1.4 9.1,2.3 8.9,3.1 8.5,4.1 8.1,4.8 7.6,5.6 6.9,6.3 6.4,7 5.6,7.6 4.8,8 4,8.6 3.2,8.8 2.3,9.2 1.4,9.3 0.4,9.4 v 191.9 l -0.4,9.4 -1.4,9.3 -2.3,9.2 -3.2,8.8 -4,8.6 -4.8,8 -5.6,7.6 -6.4,7 -6.9,6.3 -7.6,5.6 -8.1,4.8 -8.5,4.1 -8.9,3.1 -9.1,2.3 -9.3,1.4 -9.4,0.5 H 41592 l -9.4,-0.5 -9.3,-1.4 -9.1,-2.3 -8.9,-3.1 -8.5,-4.1 -8.1,-4.8 -7.6,-5.6 -6.9,-6.3 -6.4,-7 -5.6,-7.6 -4.8,-8 -4,-8.6 -3.2,-8.8 -2.3,-9.2 -1.4,-9.3 -0.4,-9.4 v -191.9 l 0.4,-9.4 1.4,-9.3 2.3,-9.2 3.2,-8.8 4,-8.6 4.8,-8 5.6,-7.6 6.4,-7 6.9,-6.3 7.6,-5.6 8.1,-4.8 8.5,-4.1 8.9,-3.1 9.1,-2.3 9.3,-1.4 9.4,-0.5 h 359.3 z"
         id="path1221"
         inkscape:connector-curvature="0" />
      <path
         style="fill:#000000;fill-opacity:1;fill-rule:evenodd;stroke:#000000;stroke-width:0;stroke-linecap:round;stroke-linejoin:round;stroke-opacity:1"
         d="m 41960.7,11104.8 9.3,1.4 9.1,2.3 8.9,3.1 8.5,4.1 8.1,4.8 7.6,5.6 6.9,6.3 6.4,7 5.6,7.6 4.8,8.1 4,8.5 3.2,8.8 2.3,9.2 1.4,9.3 0.4,9.4 v 191.9 l -0.4,9.4 -1.4,9.3 -2.3,9.2 -3.2,8.8 -4,8.6 -4.8,8 -5.6,7.6 -6.4,7 -6.9,6.3 -7.6,5.6 -8.1,4.9 -8.5,4 -8.9,3.2 -9.1,2.2 -9.3,1.4 -9.4,0.5 H 41592 l -9.4,-0.5 -9.3,-1.4 -9.1,-2.2 -8.9,-3.2 -8.5,-4 -8.1,-4.9 -7.6,-5.6 -6.9,-6.3 -6.4,-7 -5.6,-7.6 -4.8,-8 -4,-8.6 -3.2,-8.8 -2.3,-9.2 -1.4,-9.3 -0.4,-9.4 v -191.9 l 0.4,-9.4 1.4,-9.3 2.3,-9.2 3.2,-8.8 4,-8.5 4.8,-8.1 5.6,-7.6 6.4,-7 6.9,-6.3 7.6,-5.6 8.1,-4.8 8.5,-4.1 8.9,-3.1 9.1,-2.3 9.3,-1.4 9.4,-0.5 h 359.3 z"
         id="path1223"
         inkscape:connector-curvature="0" />
    </g>
    <g
       id="g1227" />
    <g
       style="fill:#000000;fill-opacity:1;stroke:#000000;stroke-width:0;stroke-linecap:round;stroke-linejoin:round;stroke-opacity:1"
       id="g1233">
      <path
         style="fill:#000000;fill-opacity:1;fill-rule:evenodd;stroke:#000000;stroke-width:0;stroke-linecap:round;stroke-linejoin:round;stroke-opacity:1"
         d="m 43535.5,31043.8 9.3,1.4 9.1,2.2 8.9,3.2 8.5,4 8.1,4.9 7.6,5.6 6.9,6.3 6.4,7 5.6,7.6 4.8,8 4,8.5 3.2,8.9 2.3,9.1 1.4,9.4 0.4,9.4 v 191.9 l -0.4,9.4 -1.4,9.3 -2.3,9.2 -3.2,8.8 -4,8.5 -4.8,8.1 -5.6,7.6 -6.4,7 -6.9,6.3 -7.6,5.6 -8.1,4.8 -8.5,4.1 -8.9,3.1 -9.1,2.3 -9.3,1.4 -9.4,0.5 h -359.3 l -9.4,-0.5 -9.3,-1.4 -9.1,-2.3 -8.9,-3.1 -8.5,-4.1 -8.1,-4.8 -7.5,-5.6 -7,-6.3 -6.4,-7 -5.6,-7.6 -4.8,-8.1 -4,-8.5 -3.2,-8.8 -2.3,-9.2 -1.4,-9.3 -0.4,-9.4 v -191.9 l 0.4,-9.4 1.4,-9.4 2.3,-9.1 3.2,-8.9 4,-8.5 4.8,-8 5.6,-7.6 6.4,-7 7,-6.3 7.5,-5.6 8.1,-4.9 8.5,-4 8.9,-3.2 9.1,-2.2 9.3,-1.4 9.4,-0.5 h 359.3 z"
         id="path1229"
         inkscape:connector-curvature="0" />
      <path
         style="fill:#000000;fill-opacity:1;fill-rule:evenodd;stroke:#000000;stroke-width:0;stroke-linecap:round;stroke-linejoin:round;stroke-opacity:1"
         d="m 43535.5,30305.6 9.3,1.4 9.1,2.3 8.9,3.1 8.5,4 8.1,4.9 7.6,5.6 6.9,6.3 6.4,7 5.6,7.6 4.8,8 4,8.6 3.2,8.8 2.3,9.2 1.4,9.3 0.4,9.4 v 191.9 l -0.4,9.4 -1.4,9.3 -2.3,9.2 -3.2,8.8 -4,8.5 -4.8,8.1 -5.6,7.6 -6.4,7 -6.9,6.3 -7.6,5.6 -8.1,4.8 -8.5,4.1 -8.9,3.1 -9.1,2.3 -9.3,1.4 -9.4,0.5 h -359.3 l -9.4,-0.5 -9.3,-1.4 -9.1,-2.3 -8.9,-3.1 -8.5,-4.1 -8.1,-4.8 -7.5,-5.6 -7,-6.3 -6.4,-7 -5.6,-7.6 -4.8,-8.1 -4,-8.5 -3.2,-8.8 -2.3,-9.2 -1.4,-9.3 -0.4,-9.4 v -191.9 l 0.4,-9.4 1.4,-9.3 2.3,-9.2 3.2,-8.8 4,-8.6 4.8,-8 5.6,-7.6 6.4,-7 7,-6.3 7.5,-5.6 8.1,-4.9 8.5,-4 8.9,-3.1 9.1,-2.3 9.3,-1.4 9.4,-0.5 h 359.3 z"
         id="path1231"
         inkscape:connector-curvature="0" />
    </g>
    <g
       id="g1235" />
    <g
       style="fill:#000000;fill-opacity:1;stroke:#000000;stroke-width:0;stroke-linecap:round;stroke-linejoin:round;stroke-opacity:1"
       id="g1241">
      <path
         style="fill:#000000;fill-opacity:1;fill-rule:evenodd;stroke:#000000;stroke-width:0;stroke-linecap:round;stroke-linejoin:round;stroke-opacity:1"
         d="m 39684.8,13258.3 9.6,1.5 9.4,2.3 9.1,3.3 8.7,4.1 8.3,5 7.7,5.7 7.2,6.5 6.5,7.2 5.7,7.7 5,8.3 4.1,8.7 3.3,9.1 2.3,9.4 1.4,9.6 0.5,9.6 v 846.5 l -0.5,9.6 -1.4,9.6 -2.3,9.3 -3.3,9.1 -4.1,8.8 -5,8.2 -5.7,7.8 -6.5,7.2 -7.2,6.4 -7.7,5.8 -8.3,5 -8.7,4.1 -9.1,3.2 -9.4,2.4 -9.6,1.4 -9.6,0.5 h -295.3 l -9.6,-0.5 -9.6,-1.4 -9.4,-2.4 -9,-3.2 -8.8,-4.1 -8.3,-5 -7.7,-5.8 -7.2,-6.4 -6.5,-7.2 -5.7,-7.8 -5,-8.2 -4.1,-8.8 -3.3,-9.1 -2.3,-9.3 -1.4,-9.6 -0.5,-9.6 v -846.5 l 0.5,-9.6 1.4,-9.6 2.3,-9.4 3.3,-9.1 4.1,-8.7 5,-8.3 5.7,-7.7 6.5,-7.2 7.2,-6.5 7.7,-5.7 8.3,-5 8.8,-4.1 9,-3.3 9.4,-2.3 9.6,-1.5 9.6,-0.4 h 295.3 z"
         id="path1237"
         inkscape:connector-curvature="0" />
      <path
         style="fill:#000000;fill-opacity:1;fill-rule:evenodd;stroke:#000000;stroke-width:0;stroke-linecap:round;stroke-linejoin:round;stroke-opacity:1"
         d="m 38582.5,13258.3 9.5,1.5 9.4,2.3 9.1,3.3 8.7,4.1 8.3,5 7.8,5.7 7.1,6.5 6.5,7.2 5.8,7.7 4.9,8.3 4.2,8.7 3.2,9.1 2.4,9.4 1.4,9.6 0.5,9.6 v 846.5 l -0.5,9.6 -1.4,9.6 -2.4,9.3 -3.2,9.1 -4.2,8.8 -4.9,8.2 -5.8,7.8 -6.5,7.2 -7.1,6.4 -7.8,5.8 -8.3,5 -8.7,4.1 -9.1,3.2 -9.4,2.4 -9.5,1.4 -9.7,0.5 h -295.2 l -9.7,-0.5 -9.5,-1.4 -9.4,-2.4 -9.1,-3.2 -8.7,-4.1 -8.3,-5 -7.8,-5.8 -7.1,-6.4 -6.5,-7.2 -5.8,-7.8 -4.9,-8.2 -4.2,-8.8 -3.2,-9.1 -2.4,-9.3 -1.4,-9.6 -0.5,-9.6 v -846.5 l 0.5,-9.6 1.4,-9.6 2.4,-9.4 3.2,-9.1 4.2,-8.7 4.9,-8.3 5.8,-7.7 6.5,-7.2 7.1,-6.5 7.8,-5.7 8.3,-5 8.7,-4.1 9.1,-3.3 9.4,-2.3 9.5,-1.5 9.7,-0.4 h 295.2 z"
         id="path1239"
         inkscape:connector-curvature="0" />
    </g>
    <g
       id="g1243" />
    <g
       style="fill:#000000;fill-opacity:1;stroke:#000000;stroke-width:0;stroke-linecap:round;stroke-linejoin:round;stroke-opacity:1"
       id="g1249">
      <path
         style="fill:#000000;fill-opacity:1;fill-rule:evenodd;stroke:#000000;stroke-width:0;stroke-linecap:round;stroke-linejoin:round;stroke-opacity:1"
         d="m 36338.4,31171.7 9.5,1.5 9.4,2.3 9.1,3.3 8.7,4.1 8.3,4.9 7.8,5.8 7.1,6.5 6.5,7.1 5.8,7.8 4.9,8.3 4.2,8.7 3.2,9.1 2.4,9.4 1.4,9.5 0.5,9.7 v 846.4 l -0.5,9.7 -1.4,9.5 -2.4,9.4 -3.2,9.1 -4.2,8.7 -4.9,8.3 -5.8,7.8 -6.5,7.1 -7.1,6.5 -7.8,5.8 -8.3,4.9 -8.7,4.2 -9.1,3.2 -9.4,2.4 -9.5,1.4 -9.7,0.5 h -295.2 l -9.7,-0.5 -9.5,-1.4 -9.4,-2.4 -9.1,-3.2 -8.7,-4.2 -8.3,-4.9 -7.8,-5.8 -7.1,-6.5 -6.5,-7.1 -5.8,-7.8 -4.9,-8.3 -4.2,-8.7 -3.2,-9.1 -2.4,-9.4 -1.4,-9.5 -0.5,-9.7 v -846.4 l 0.5,-9.7 1.4,-9.5 2.4,-9.4 3.2,-9.1 4.2,-8.7 4.9,-8.3 5.8,-7.8 6.5,-7.1 7.1,-6.5 7.8,-5.8 8.3,-4.9 8.7,-4.1 9.1,-3.3 9.4,-2.3 9.5,-1.5 9.7,-0.4 h 295.2 z"
         id="path1245"
         inkscape:connector-curvature="0" />
      <path
         style="fill:#000000;fill-opacity:1;fill-rule:evenodd;stroke:#000000;stroke-width:0;stroke-linecap:round;stroke-linejoin:round;stroke-opacity:1"
         d="m 35236,31171.7 9.6,1.5 9.3,2.3 9.1,3.3 8.8,4.1 8.3,4.9 7.7,5.8 7.2,6.5 6.5,7.1 5.7,7.8 5,8.3 4.1,8.7 3.3,9.1 2.3,9.4 1.4,9.5 0.5,9.7 v 846.4 l -0.5,9.7 -1.4,9.5 -2.3,9.4 -3.3,9.1 -4.1,8.7 -5,8.3 -5.7,7.8 -6.5,7.1 -7.2,6.5 -7.7,5.8 -8.3,4.9 -8.8,4.2 -9.1,3.2 -9.3,2.4 -9.6,1.4 -9.6,0.5 h -295.3 l -9.6,-0.5 -9.6,-1.4 -9.4,-2.4 -9.1,-3.2 -8.7,-4.2 -8.3,-4.9 -7.7,-5.8 -7.2,-6.5 -6.5,-7.1 -5.7,-7.8 -5,-8.3 -4.1,-8.7 -3.3,-9.1 -2.3,-9.4 -1.4,-9.5 -0.5,-9.7 v -846.4 l 0.5,-9.7 1.4,-9.5 2.3,-9.4 3.3,-9.1 4.1,-8.7 5,-8.3 5.7,-7.8 6.5,-7.1 7.2,-6.5 7.7,-5.8 8.3,-4.9 8.7,-4.1 9.1,-3.3 9.4,-2.3 9.6,-1.5 9.6,-0.4 h 295.3 z"
         id="path1247"
         inkscape:connector-curvature="0" />
    </g>
    <g
       id="g1251" />
    <g
       style="fill:#000000;fill-opacity:1;stroke:#000000;stroke-width:0;stroke-linecap:round;stroke-linejoin:round;stroke-opacity:1"
       id="g1259">
      <path
         style="fill:#000000;fill-opacity:1;fill-rule:evenodd;stroke:#000000;stroke-width:0;stroke-linecap:round;stroke-linejoin:round;stroke-opacity:1"
         d="m 21059.5,9765.06 25.8,3.83 25.3,6.33 24.6,8.79 23.5,11.15 22.4,13.41 21,15.53 19.3,17.52 17.5,19.32 15.5,20.95 13.4,22.36 11.2,23.58 8.8,24.56 6.3,25.29 3.8,25.82 1.3,26 v 531.5 l -1.3,26.1 -3.8,25.8 -6.3,25.3 -8.8,24.5 -11.2,23.6 -13.4,22.4 -15.5,20.9 -17.5,19.3 -19.3,17.5 -21,15.6 -22.4,13.4 -23.5,11.1 -24.6,8.8 -25.3,6.4 -25.8,3.8 -26,1.3 H 20187 l -26,-1.3 -25.8,-3.8 -25.3,-6.4 -24.6,-8.8 -23.6,-11.1 -22.3,-13.4 -21,-15.6 -19.3,-17.5 -17.5,-19.3 -15.6,-20.9 -13.4,-22.4 -11.1,-23.6 -8.8,-24.5 -6.3,-25.3 -3.9,-25.8 -1.2,-26.1 v -531.5 l 1.2,-26 3.9,-25.82 6.3,-25.29 8.8,-24.56 11.1,-23.58 13.4,-22.36 15.6,-20.95 17.5,-19.32 19.3,-17.52 21,-15.53 22.3,-13.41 23.6,-11.15 24.6,-8.79 25.3,-6.33 25.8,-3.83 26,-1.28 h 846.5 z"
         id="path1253"
         inkscape:connector-curvature="0" />
      <path
         style="fill:#000000;fill-opacity:1;fill-rule:evenodd;stroke:#000000;stroke-width:0;stroke-linecap:round;stroke-linejoin:round;stroke-opacity:1"
         d="m 16059.5,10828.1 25.8,3.8 25.3,6.3 24.6,8.8 23.5,11.2 22.4,13.4 21,15.5 19.3,17.5 17.5,19.3 15.5,21 13.4,22.3 11.2,23.6 8.8,24.6 6.3,25.3 3.8,25.8 1.3,26 v 531.5 l -1.3,26.1 -3.8,25.8 -6.3,25.3 -8.8,24.5 -11.2,23.6 -13.4,22.4 -15.5,20.9 -17.5,19.3 -19.3,17.5 -21,15.6 -22.4,13.4 -23.5,11.1 -24.6,8.8 -25.3,6.4 -25.8,3.8 -26,1.3 H 15187 l -26,-1.3 -25.8,-3.8 -25.3,-6.4 -24.6,-8.8 -23.6,-11.1 -22.3,-13.4 -21,-15.6 -19.3,-17.5 -17.5,-19.3 -15.6,-20.9 -13.4,-22.4 -11.1,-23.6 -8.8,-24.5 -6.3,-25.3 -3.9,-25.8 -1.2,-26.1 v -531.5 l 1.2,-26 3.9,-25.8 6.3,-25.3 8.8,-24.6 11.1,-23.6 13.4,-22.3 15.6,-21 17.5,-19.3 19.3,-17.5 21,-15.5 22.3,-13.4 23.6,-11.2 24.6,-8.8 25.3,-6.3 25.8,-3.8 26,-1.3 h 846.5 z"
         id="path1255"
         inkscape:connector-curvature="0" />
      <circle
         cx="18110.199"
         cy="10826.8"
         r="1122.05"
         id="circle1257" />
    </g>
    <g
       style="fill:#000000;fill-opacity:1;stroke:#000000;stroke-width:39.37009811;stroke-linecap:round;stroke-linejoin:round;stroke-opacity:1"
       id="g1261" />
    <g
       id="g1263" />
    <g
       style="fill:#000000;fill-opacity:1;stroke:#000000;stroke-width:39.37009811;stroke-linecap:round;stroke-linejoin:round;stroke-opacity:1"
       id="g1265" />
    <g
       style="fill:#000000;fill-opacity:1;stroke:#000000;stroke-width:0;stroke-linecap:round;stroke-linejoin:round;stroke-opacity:1"
       id="g1271">
      <path
         style="fill:#000000;fill-opacity:1;fill-rule:evenodd;stroke:#000000;stroke-width:0;stroke-linecap:round;stroke-linejoin:round;stroke-opacity:1"
         d="m 42657.5,10523.6 h 590.5 v 413.4 h -590.5 z"
         id="path1267"
         inkscape:connector-curvature="0" />
      <path
         style="fill:#000000;fill-opacity:1;fill-rule:evenodd;stroke:#000000;stroke-width:0;stroke-linecap:round;stroke-linejoin:round;stroke-opacity:1"
         d="m 42657.5,11192.9 h 590.5 v 944.9 h -590.5 z"
         id="path1269"
         inkscape:connector-curvature="0" />
    </g>
    <g
       id="g1273" />
    <g
       style="fill:#000000;fill-opacity:1;stroke:#000000;stroke-width:0;stroke-linecap:round;stroke-linejoin:round;stroke-opacity:1"
       id="g1281">
      <path
         style="fill:#000000;fill-opacity:1;fill-rule:evenodd;stroke:#000000;stroke-width:0;stroke-linecap:round;stroke-linejoin:round;stroke-opacity:1"
         d="m 21059.5,28662.7 25.8,3.8 25.3,6.4 24.6,8.7 23.5,11.2 22.4,13.4 21,15.5 19.3,17.6 17.5,19.3 15.5,20.9 13.4,22.4 11.2,23.6 8.8,24.5 6.3,25.3 3.8,25.8 1.3,26.1 v 531.5 l -1.3,26 -3.8,25.8 -6.3,25.3 -8.8,24.6 -11.2,23.5 -13.4,22.4 -15.5,20.9 -17.5,19.4 -19.3,17.5 -21,15.5 -22.4,13.4 -23.5,11.2 -24.6,8.8 -25.3,6.3 -25.8,3.8 -26,1.3 H 20187 l -26,-1.3 -25.8,-3.8 -25.3,-6.3 -24.6,-8.8 -23.6,-11.2 -22.3,-13.4 -21,-15.5 -19.3,-17.5 -17.5,-19.4 -15.6,-20.9 -13.4,-22.4 -11.1,-23.5 -8.8,-24.6 -6.3,-25.3 -3.9,-25.8 -1.2,-26 v -531.5 l 1.2,-26.1 3.9,-25.8 6.3,-25.3 8.8,-24.5 11.1,-23.6 13.4,-22.4 15.6,-20.9 17.5,-19.3 19.3,-17.6 21,-15.5 22.3,-13.4 23.6,-11.2 24.6,-8.7 25.3,-6.4 25.8,-3.8 26,-1.3 h 846.5 z"
         id="path1275"
         inkscape:connector-curvature="0" />
      <path
         style="fill:#000000;fill-opacity:1;fill-rule:evenodd;stroke:#000000;stroke-width:0;stroke-linecap:round;stroke-linejoin:round;stroke-opacity:1"
         d="m 16059.5,29725.7 25.8,3.8 25.3,6.4 24.6,8.7 23.5,11.2 22.4,13.4 21,15.5 19.3,17.5 17.5,19.4 15.5,20.9 13.4,22.4 11.2,23.6 8.8,24.5 6.3,25.3 3.8,25.8 1.3,26.1 v 531.5 l -1.3,26 -3.8,25.8 -6.3,25.3 -8.8,24.6 -11.2,23.5 -13.4,22.4 -15.5,20.9 -17.5,19.4 -19.3,17.5 -21,15.5 -22.4,13.4 -23.5,11.2 -24.6,8.8 -25.3,6.3 -25.8,3.8 -26,1.3 H 15187 l -26,-1.3 -25.8,-3.8 -25.3,-6.3 -24.6,-8.8 -23.6,-11.2 -22.3,-13.4 -21,-15.5 -19.3,-17.5 -17.5,-19.4 -15.6,-20.9 -13.4,-22.4 -11.1,-23.5 -8.8,-24.6 -6.3,-25.3 -3.9,-25.8 -1.2,-26 v -531.5 l 1.2,-26.1 3.9,-25.8 6.3,-25.3 8.8,-24.5 11.1,-23.6 13.4,-22.4 15.6,-20.9 17.5,-19.4 19.3,-17.5 21,-15.5 22.3,-13.4 23.6,-11.2 24.6,-8.7 25.3,-6.4 25.8,-3.8 26,-1.3 h 846.5 z"
         id="path1277"
         inkscape:connector-curvature="0" />
      <circle
         cx="18110.199"
         cy="29724.4"
         r="1122.05"
         id="circle1279" />
    </g>
    <g
       style="fill:#000000;fill-opacity:1;stroke:#000000;stroke-width:39.37009811;stroke-linecap:round;stroke-linejoin:round;stroke-opacity:1"
       id="g1283" />
    <g
       id="g1285" />
    <g
       style="fill:#000000;fill-opacity:1;stroke:#000000;stroke-width:39.37009811;stroke-linecap:round;stroke-linejoin:round;stroke-opacity:1"
       id="g1287" />
    <g
       style="fill:#000000;fill-opacity:1;stroke:#000000;stroke-width:0;stroke-linecap:round;stroke-linejoin:round;stroke-opacity:1"
       id="g1293">
      <path
         style="fill:#000000;fill-opacity:1;fill-rule:evenodd;stroke:#000000;stroke-width:0;stroke-linecap:round;stroke-linejoin:round;stroke-opacity:1"
         d="m 41752,32539.4 v -590.6 h 413.4 v 590.6 z"
         id="path1289"
         inkscape:connector-curvature="0" />
      <path
         style="fill:#000000;fill-opacity:1;fill-rule:evenodd;stroke:#000000;stroke-width:0;stroke-linecap:round;stroke-linejoin:round;stroke-opacity:1"
         d="m 42421.3,32539.4 v -590.6 h 944.8 v 590.6 z"
         id="path1291"
         inkscape:connector-curvature="0" />
    </g>
    <g
       id="g1295" />
    <g
       style="fill:#000000;fill-opacity:1;stroke:#000000;stroke-width:0;stroke-linecap:round;stroke-linejoin:round;stroke-opacity:1"
       id="g1301">
      <path
         style="fill:#000000;fill-opacity:1;fill-rule:evenodd;stroke:#000000;stroke-width:0;stroke-linecap:round;stroke-linejoin:round;stroke-opacity:1"
         d="m 37422.3,31624.4 8.4,1.3 8.2,2 7.9,2.9 7.7,3.6 7.2,4.3 6.8,5.1 6.3,5.6 5.7,6.3 5,6.8 4.3,7.2 3.6,7.7 2.9,7.9 2,8.2 1.3,8.4 0.4,8.4 v 201.8 l -0.4,8.5 -1.3,8.3 -2,8.2 -2.9,8 -3.6,7.6 -4.3,7.3 -5,6.7 -5.7,6.3 -6.3,5.7 -6.8,5 -7.2,4.4 -7.7,3.6 -7.9,2.8 -8.2,2.1 -8.4,1.2 -8.4,0.4 h -172.3 l -8.4,-0.4 -8.4,-1.2 -8.2,-2.1 -7.9,-2.8 -7.7,-3.6 -7.2,-4.4 -6.8,-5 -6.3,-5.7 -5.6,-6.3 -5.1,-6.7 -4.3,-7.3 -3.6,-7.6 -2.9,-8 -2,-8.2 -1.3,-8.3 -0.4,-8.5 v -201.8 l 0.4,-8.4 1.3,-8.4 2,-8.2 2.9,-7.9 3.6,-7.7 4.3,-7.2 5.1,-6.8 5.6,-6.3 6.3,-5.6 6.8,-5.1 7.2,-4.3 7.7,-3.6 7.9,-2.9 8.2,-2 8.4,-1.3 8.4,-0.4 h 172.3 z"
         id="path1297"
         inkscape:connector-curvature="0" />
      <path
         style="fill:#000000;fill-opacity:1;fill-rule:evenodd;stroke:#000000;stroke-width:0;stroke-linecap:round;stroke-linejoin:round;stroke-opacity:1"
         d="m 38042.4,31624.4 8.4,1.3 8.2,2 7.9,2.9 7.7,3.6 7.2,4.3 6.8,5.1 6.3,5.6 5.6,6.3 5.1,6.8 4.3,7.2 3.6,7.7 2.9,7.9 2,8.2 1.3,8.4 0.4,8.4 v 201.8 l -0.4,8.5 -1.3,8.3 -2,8.2 -2.9,8 -3.6,7.6 -4.3,7.3 -5.1,6.7 -5.6,6.3 -6.3,5.7 -6.8,5 -7.2,4.4 -7.7,3.6 -7.9,2.8 -8.2,2.1 -8.4,1.2 -8.4,0.4 h -172.3 l -8.4,-0.4 -8.4,-1.2 -8.2,-2.1 -7.9,-2.8 -7.7,-3.6 -7.2,-4.4 -6.8,-5 -6.3,-5.7 -5.7,-6.3 -5,-6.7 -4.3,-7.3 -3.7,-7.6 -2.8,-8 -2.1,-8.2 -1.2,-8.3 -0.4,-8.5 v -201.8 l 0.4,-8.4 1.2,-8.4 2.1,-8.2 2.8,-7.9 3.7,-7.7 4.3,-7.2 5,-6.8 5.7,-6.3 6.3,-5.6 6.8,-5.1 7.2,-4.3 7.7,-3.6 7.9,-2.9 8.2,-2 8.4,-1.3 8.4,-0.4 h 172.3 z"
         id="path1299"
         inkscape:connector-curvature="0" />
    </g>
    <g
       id="g1303" />
    <g
       style="fill:#000000;fill-opacity:1;stroke:#000000;stroke-width:0;stroke-linecap:round;stroke-linejoin:round;stroke-opacity:1"
       id="g1309">
      <path
         style="fill:#000000;fill-opacity:1;fill-rule:evenodd;stroke:#000000;stroke-width:0;stroke-linecap:round;stroke-linejoin:round;stroke-opacity:1"
         d="m 44243.2,13181.5 8.3,1.3 8.2,2 8,2.9 7.6,3.6 7.3,4.3 6.8,5.1 6.2,5.6 5.7,6.3 5.1,6.8 4.3,7.2 3.6,7.7 2.9,7.9 2,8.2 1.3,8.4 0.4,8.4 v 172.3 l -0.4,8.4 -1.3,8.4 -2,8.2 -2.9,7.9 -3.6,7.7 -4.3,7.2 -5.1,6.8 -5.7,6.3 -6.2,5.6 -6.8,5.1 -7.3,4.3 -7.6,3.6 -8,2.9 -8.2,2 -8.3,1.3 -8.5,0.4 H 44033 l -8.5,-0.4 -8.3,-1.3 -8.2,-2 -8,-2.9 -7.6,-3.6 -7.3,-4.3 -6.8,-5.1 -6.2,-5.6 -5.7,-6.3 -5,-6.8 -4.4,-7.2 -3.6,-7.7 -2.8,-7.9 -2.1,-8.2 -1.2,-8.4 -0.4,-8.4 v -172.3 l 0.4,-8.4 1.2,-8.4 2.1,-8.2 2.8,-7.9 3.6,-7.7 4.4,-7.2 5,-6.8 5.7,-6.3 6.2,-5.6 6.8,-5.1 7.3,-4.3 7.6,-3.6 8,-2.9 8.2,-2 8.3,-1.3 8.5,-0.4 h 201.7 z"
         id="path1305"
         inkscape:connector-curvature="0" />
      <path
         style="fill:#000000;fill-opacity:1;fill-rule:evenodd;stroke:#000000;stroke-width:0;stroke-linecap:round;stroke-linejoin:round;stroke-opacity:1"
         d="m 44243.2,12561.4 8.3,1.3 8.2,2 8,2.9 7.6,3.6 7.3,4.3 6.8,5.1 6.2,5.6 5.7,6.3 5.1,6.8 4.3,7.2 3.6,7.7 2.9,7.9 2,8.2 1.3,8.4 0.4,8.4 v 172.3 l -0.4,8.4 -1.3,8.4 -2,8.2 -2.9,7.9 -3.6,7.7 -4.3,7.2 -5.1,6.8 -5.7,6.3 -6.2,5.7 -6.8,5 -7.3,4.3 -7.6,3.7 -8,2.8 -8.2,2.1 -8.3,1.2 -8.5,0.4 H 44033 l -8.5,-0.4 -8.3,-1.2 -8.2,-2.1 -8,-2.8 -7.6,-3.7 -7.3,-4.3 -6.8,-5 -6.2,-5.7 -5.7,-6.3 -5,-6.8 -4.4,-7.2 -3.6,-7.7 -2.8,-7.9 -2.1,-8.2 -1.2,-8.4 -0.4,-8.4 v -172.3 l 0.4,-8.4 1.2,-8.4 2.1,-8.2 2.8,-7.9 3.6,-7.7 4.4,-7.2 5,-6.8 5.7,-6.3 6.2,-5.6 6.8,-5.1 7.3,-4.3 7.6,-3.6 8,-2.9 8.2,-2 8.3,-1.3 8.5,-0.4 h 201.7 z"
         id="path1307"
         inkscape:connector-curvature="0" />
    </g>
    <g
       id="g1311" />
    <g
       style="fill:#000000;fill-opacity:1;stroke:#000000;stroke-width:0;stroke-linecap:round;stroke-linejoin:round;stroke-opacity:1"
       id="g1317">
      <path
         style="fill:#000000;fill-opacity:1;fill-rule:evenodd;stroke:#000000;stroke-width:0;stroke-linecap:round;stroke-linejoin:round;stroke-opacity:1"
         d="m 41093.6,31717 8.3,1.2 8.2,2 8,2.9 7.6,3.6 7.3,4.3 6.8,5.1 6.2,5.7 5.7,6.2 5,6.8 4.4,7.3 3.6,7.6 2.9,8 2,8.2 1.2,8.3 0.5,8.5 v 172.2 l -0.5,8.4 -1.2,8.4 -2,8.2 -2.9,8 -3.6,7.6 -4.4,7.2 -5,6.8 -5.7,6.3 -6.2,5.7 -6.8,5 -7.3,4.4 -7.6,3.6 -8,2.8 -8.2,2.1 -8.3,1.2 -8.5,0.4 h -201.7 l -8.5,-0.4 -8.3,-1.2 -8.2,-2.1 -8,-2.8 -7.6,-3.6 -7.3,-4.4 -6.8,-5 -6.2,-5.7 -5.7,-6.3 -5,-6.8 -4.4,-7.2 -3.6,-7.6 -2.8,-8 -2.1,-8.2 -1.2,-8.4 -0.5,-8.4 v -172.2 l 0.5,-8.5 1.2,-8.3 2.1,-8.2 2.8,-8 3.6,-7.6 4.4,-7.3 5,-6.8 5.7,-6.2 6.2,-5.7 6.8,-5.1 7.3,-4.3 7.6,-3.6 8,-2.9 8.2,-2 8.3,-1.2 8.5,-0.5 h 201.7 z"
         id="path1313"
         inkscape:connector-curvature="0" />
      <path
         style="fill:#000000;fill-opacity:1;fill-rule:evenodd;stroke:#000000;stroke-width:0;stroke-linecap:round;stroke-linejoin:round;stroke-opacity:1"
         d="m 41093.6,31096.9 8.3,1.2 8.2,2.1 8,2.8 7.6,3.6 7.3,4.4 6.8,5 6.2,5.7 5.7,6.2 5,6.8 4.4,7.3 3.6,7.6 2.9,8 2,8.2 1.2,8.3 0.5,8.5 v 172.2 l -0.5,8.5 -1.2,8.3 -2,8.2 -2.9,8 -3.6,7.6 -4.4,7.3 -5,6.8 -5.7,6.2 -6.2,5.7 -6.8,5 -7.3,4.4 -7.6,3.6 -8,2.8 -8.2,2.1 -8.3,1.2 -8.5,0.4 h -201.7 l -8.5,-0.4 -8.3,-1.2 -8.2,-2.1 -8,-2.8 -7.6,-3.6 -7.3,-4.4 -6.8,-5 -6.2,-5.7 -5.7,-6.2 -5,-6.8 -4.4,-7.3 -3.6,-7.6 -2.8,-8 -2.1,-8.2 -1.2,-8.3 -0.5,-8.5 v -172.2 l 0.5,-8.5 1.2,-8.3 2.1,-8.2 2.8,-8 3.6,-7.6 4.4,-7.3 5,-6.8 5.7,-6.2 6.2,-5.7 6.8,-5 7.3,-4.4 7.6,-3.6 8,-2.8 8.2,-2.1 8.3,-1.2 8.5,-0.4 h 201.7 z"
         id="path1315"
         inkscape:connector-curvature="0" />
    </g>
    <g
       id="g1319" />
    <g
       style="fill:#000000;fill-opacity:1;stroke:#000000;stroke-width:0;stroke-linecap:round;stroke-linejoin:round;stroke-opacity:1"
       id="g1325">
      <path
         style="fill:#000000;fill-opacity:1;fill-rule:evenodd;stroke:#000000;stroke-width:0;stroke-linecap:round;stroke-linejoin:round;stroke-opacity:1"
         d="m 43062.1,13181.5 8.3,1.3 8.2,2 8,2.9 7.6,3.6 7.3,4.3 6.8,5.1 6.2,5.6 5.7,6.3 5,6.8 4.4,7.2 3.6,7.7 2.9,7.9 2,8.2 1.2,8.4 0.5,8.4 v 172.3 l -0.5,8.4 -1.2,8.4 -2,8.2 -2.9,7.9 -3.6,7.7 -4.4,7.2 -5,6.8 -5.7,6.3 -6.2,5.6 -6.8,5.1 -7.3,4.3 -7.6,3.6 -8,2.9 -8.2,2 -8.3,1.3 -8.5,0.4 h -201.7 l -8.5,-0.4 -8.3,-1.3 -8.2,-2 -8,-2.9 -7.6,-3.6 -7.3,-4.3 -6.8,-5.1 -6.2,-5.6 -5.7,-6.3 -5,-6.8 -4.4,-7.2 -3.6,-7.7 -2.8,-7.9 -2.1,-8.2 -1.2,-8.4 -0.5,-8.4 v -172.3 l 0.5,-8.4 1.2,-8.4 2.1,-8.2 2.8,-7.9 3.6,-7.7 4.4,-7.2 5,-6.8 5.7,-6.3 6.2,-5.6 6.8,-5.1 7.3,-4.3 7.6,-3.6 8,-2.9 8.2,-2 8.3,-1.3 8.5,-0.4 h 201.7 z"
         id="path1321"
         inkscape:connector-curvature="0" />
      <path
         style="fill:#000000;fill-opacity:1;fill-rule:evenodd;stroke:#000000;stroke-width:0;stroke-linecap:round;stroke-linejoin:round;stroke-opacity:1"
         d="m 43062.1,12561.4 8.3,1.3 8.2,2 8,2.9 7.6,3.6 7.3,4.3 6.8,5.1 6.2,5.6 5.7,6.3 5,6.8 4.4,7.2 3.6,7.7 2.9,7.9 2,8.2 1.2,8.4 0.5,8.4 v 172.3 l -0.5,8.4 -1.2,8.4 -2,8.2 -2.9,7.9 -3.6,7.7 -4.4,7.2 -5,6.8 -5.7,6.3 -6.2,5.7 -6.8,5 -7.3,4.3 -7.6,3.7 -8,2.8 -8.2,2.1 -8.3,1.2 -8.5,0.4 h -201.7 l -8.5,-0.4 -8.3,-1.2 -8.2,-2.1 -8,-2.8 -7.6,-3.7 -7.3,-4.3 -6.8,-5 -6.2,-5.7 -5.7,-6.3 -5,-6.8 -4.4,-7.2 -3.6,-7.7 -2.8,-7.9 -2.1,-8.2 -1.2,-8.4 -0.5,-8.4 v -172.3 l 0.5,-8.4 1.2,-8.4 2.1,-8.2 2.8,-7.9 3.6,-7.7 4.4,-7.2 5,-6.8 5.7,-6.3 6.2,-5.6 6.8,-5.1 7.3,-4.3 7.6,-3.6 8,-2.9 8.2,-2 8.3,-1.3 8.5,-0.4 h 201.7 z"
         id="path1323"
         inkscape:connector-curvature="0" />
    </g>
    <g
       id="g1327" />
    <g
       id="g1329" />
    <g
       id="g1331" />
  </g>
  <g
     style="fill:#000000;fill-opacity:1;stroke:#000000;stroke-width:0;stroke-linecap:round;stroke-linejoin:round;stroke-opacity:1"
     id="g1335"
     transform="translate(-7864.1565,-2112.8347)" />
  <path
     style="fill:#000000;fill-opacity:0;stroke:#ff0000;stroke-width:19.68499947;stroke-linecap:round;stroke-linejoin:round;stroke-opacity:1"
     inkscape:connector-curvature="0"
     id="path1347"
     d="m 16938.943,4973.7753 a 984.252,984.252 0 0 0 984.3,-984.25" />
  <path
     style="fill:#000000;fill-opacity:0;stroke:#000000;stroke-width:19.68499947;stroke-linecap:round;stroke-linejoin:round;stroke-opacity:1"
     inkscape:connector-curvature="0"
     id="path1353"
     d="m 16938.843,4973.1653 h -985" />
  <path
     style="fill:#000000;fill-opacity:0;stroke:#ff0000;stroke-width:19.68499947;stroke-linecap:round;stroke-linejoin:round;stroke-opacity:1"
     inkscape:connector-curvature="0"
     id="path1355"
     d="m 17922.843,1036.1653 v 2953" />
  <path
     style="fill:#000000;fill-opacity:0;stroke:#ff0000;stroke-width:19.68499947;stroke-linecap:round;stroke-linejoin:round;stroke-opacity:1"
     inkscape:connector-curvature="0"
     id="path1359"
     d="m 18907.543,52.515234 a 984.252,984.252 0 0 0 -984.3,984.260066" />
  <path
     style="fill:#000000;fill-opacity:0;stroke:#ff0000;stroke-width:19.68499947;stroke-linecap:round;stroke-linejoin:round;stroke-opacity:1"
     inkscape:connector-curvature="0"
     id="path1361"
     d="m 9.863484,28989.565 a 1968.5,1968.5 0 0 0 1968.500016,1968.5" />
  <path
     style="fill:#000000;fill-opacity:0;stroke:#ff0000;stroke-width:19.68499947;stroke-linecap:round;stroke-linejoin:round;stroke-opacity:1"
     inkscape:connector-curvature="0"
     id="path1367"
     d="M 1978.3635,4973.7753 A 1968.5,1968.5 0 0 0 9.863484,6942.2853" />
  <path
     style="fill:#000000;fill-opacity:0;stroke:#ff0000;stroke-width:19.68499947;stroke-linecap:round;stroke-linejoin:round;stroke-opacity:1"
     inkscape:connector-curvature="0"
     id="path1373"
     d="m 18906.843,52.165234 h 3937" />
  <path
     style="fill:#000000;fill-opacity:0;stroke:#ff0000;stroke-width:19.68499947;stroke-linecap:round;stroke-linejoin:round;stroke-opacity:1"
     inkscape:connector-curvature="0"
     id="path1375"
     d="M 1977.8435,4973.1653 H 15953.843" />
  <path
     style="fill:#000000;fill-opacity:0;stroke:#ff0000;stroke-width:137.79528237;stroke-linecap:round;stroke-linejoin:round;stroke-opacity:1;stroke-miterlimit:4;stroke-dasharray:none"
     inkscape:connector-curvature="0"
     id="path1377"
     d="M 9.843484,28989.165 V 6942.1653" />
  <path
     style="fill:none;stroke:#df0000;stroke-width:104.33070374;stroke-linecap:butt;stroke-linejoin:miter;stroke-miterlimit:4;stroke-dasharray:none;stroke-opacity:1"
     d="M 22843.844,52.165352 H 45989.36 V 34483.161 H 21193.275 V 30928.03"
     id="path5168"
     inkscape:connector-curvature="0"
     sodipodi:nodetypes="ccccc" />
  <path
     style="fill:none;stroke:#ff0000;stroke-width:104.16667175px;stroke-linecap:butt;stroke-linejoin:miter;stroke-opacity:1"
     d="M 1978.3635,30958.066 21193.276,30928.03"
     id="path5170"
     inkscape:connector-curvature="0" />
</svg>
